<svg width="1306" height="243" viewBox="0 0 1306 243" fill="none" xmlns="http://www.w3.org/2000/svg">
<path fill-rule="evenodd" clip-rule="evenodd" d="M8.04487 2H0V0H8.04487V2ZM40.2244 2H24.1346V0H40.2244V2ZM72.4038 2H56.3141V0H72.4038V2ZM104.583 2H88.4936V0H104.583V2ZM136.763 2H120.673V0H136.763V2ZM168.942 2H152.853V0H168.942V2ZM201.122 2H185.032V0H201.122V2ZM233.301 2H217.212V0H233.301V2ZM265.481 2H249.391V0H265.481V2ZM297.66 2H281.57V0H297.66V2ZM329.84 2H313.75V0H329.84V2ZM362.019 2H345.93V0H362.019V2ZM394.199 2H378.109V0H394.199V2ZM426.378 2H410.289V0H426.378V2ZM458.558 2H442.468V0H458.558V2ZM490.737 2H474.648V0H490.737V2ZM522.917 2H506.827V0H522.917V2ZM555.096 2H539.006V0H555.096V2ZM587.276 2H571.186V0H587.276V2ZM619.455 2H603.365V0H619.455V2ZM651.635 2H635.545V0H651.635V2ZM683.814 2H667.724V0H683.814V2ZM715.993 2H699.904V0H715.993V2ZM748.173 2H732.083V0H748.173V2ZM780.352 2H764.263V0H780.352V2ZM812.532 2H796.442V0H812.532V2ZM844.711 2H828.621V0H844.711V2ZM876.891 2H860.801V0H876.891V2ZM909.07 2H892.98V0H909.07V2ZM941.25 2H925.16V0H941.25V2ZM973.429 2H957.339V0H973.429V2ZM1005.61 2H989.519V0H1005.61V2ZM1037.79 2H1021.7V0H1037.79V2ZM1069.97 2H1053.88V0H1069.97V2ZM1102.15 2H1086.06V0H1102.15V2ZM1134.33 2H1118.24V0H1134.33V2ZM1166.51 2H1150.42V0H1166.51V2ZM1198.69 2H1182.6V0H1198.69V2ZM1230.86 2H1214.77V0H1230.86V2ZM1255 2H1246.95V0H1255C1258.4 0 1261.73 0.333783 1264.95 0.970714L1264.56 2.93269C1261.47 2.32091 1258.27 2 1255 2ZM1295.75 23.7755C1292.17 18.4316 1287.57 13.8304 1282.22 10.2527L1283.34 8.59076C1288.9 12.3139 1293.69 17.1017 1297.41 22.6629L1295.75 23.7755ZM1304 51C1304 47.7262 1303.68 44.5284 1303.07 41.436L1305.03 41.0478C1305.67 44.2674 1306 47.5952 1306 51V59.8125H1304V51ZM1304 95.0625V77.4375H1306V95.0625H1304ZM1304 130.312V112.688H1306V130.312H1304ZM1304 165.562V147.938H1306V165.562H1304ZM1304 192V183.188H1306V192C1306 195.405 1305.67 198.733 1305.03 201.952L1303.07 201.564C1303.68 198.472 1304 195.274 1304 192ZM1282.22 232.747C1287.57 229.17 1292.17 224.568 1295.75 219.224L1297.41 220.337C1293.69 225.898 1288.9 230.686 1283.34 234.409L1282.22 232.747ZM1255 241C1258.27 241 1261.47 240.679 1264.56 240.067L1264.95 242.029C1261.73 242.666 1258.4 243 1255 243H1246.96V241H1255ZM0 241H8.04575V243H0V241ZM24.1355 241H40.2252V243H24.1355V241ZM56.3149 241H72.4046V243H56.3149V241ZM88.4944 241H104.584V243H88.4944V241ZM120.674 241H136.764V243H120.674V241ZM152.853 241H168.943V243H152.853V241ZM185.033 241H201.122V243H185.033V241ZM217.212 241H233.302V243H217.212V241ZM249.392 241H265.481V243H249.392V241ZM281.571 241H297.661V243H281.571V241ZM313.751 241H329.84V243H313.751V241ZM345.93 241H362.02V243H345.93V241ZM378.109 241H394.199V243H378.109V241ZM410.289 241H426.379V243H410.289V241ZM442.468 241H458.558V243H442.468V241ZM474.648 241H490.737V243H474.648V241ZM506.827 241H522.917V243H506.827V241ZM539.007 241H555.096V243H539.007V241ZM571.186 241H587.276V243H571.186V241ZM603.365 241H619.455V243H603.365V241ZM635.545 241H651.635V243H635.545V241ZM667.724 241H683.814V243H667.724V241ZM699.904 241H715.994V243H699.904V241ZM732.083 241H748.173V243H732.083V241ZM764.263 241H780.352V243H764.263V241ZM796.442 241H812.532V243H796.442V241ZM828.622 241H844.711V243H828.622V241ZM860.801 241H876.891V243H860.801V241ZM892.981 241H909.07V243H892.981V241ZM925.16 241H941.25V243H925.16V241ZM957.34 241H973.43V243H957.34V241ZM989.519 241H1005.61V243H989.519V241ZM1021.7 241H1037.79V243H1021.7V241ZM1053.88 241H1069.97V243H1053.88V241ZM1086.06 241H1102.15V243H1086.06V241ZM1118.24 241H1134.33V243H1118.24V241ZM1150.42 241H1166.51V243H1150.42V241ZM1182.6 241H1198.69V243H1182.6V241ZM1214.78 241H1230.87V243H1214.78V241Z" fill="#2148D1" fill-opacity="0.2"/>
</svg>
