<svg width="225" height="298" viewBox="0 0 225 298" fill="none" xmlns="http://www.w3.org/2000/svg">
<path fill-rule="evenodd" clip-rule="evenodd" d="M35.7331 297.775C33.5085 296.548 31.1875 295.454 28.7803 294.507C19.489 290.854 9.79004 289.436 0 289.019V288.058C9.89127 288.474 19.7001 289.916 29.1234 293.619C32.0986 294.79 34.9408 296.187 37.6367 297.775H35.7331Z" fill="white" fill-opacity="0.2"/>
<path fill-rule="evenodd" clip-rule="evenodd" d="M69.0634 297.775C59.2547 286.607 46.0957 277.974 31.0555 273.247C20.9494 270.07 10.5137 268.523 0 267.777V266.824C10.5962 267.571 21.1275 269.131 31.3349 272.34C46.8231 277.211 60.3439 286.172 70.3225 297.775H69.0634Z" fill="white" fill-opacity="0.2"/>
<path fill-rule="evenodd" clip-rule="evenodd" d="M91.0282 297.775C90.7537 297.386 90.4932 296.997 90.2138 296.608C75.2333 275.764 53.1579 261.25 26.3825 254.635C17.6491 252.481 8.6873 250.969 0 249.793V248.837C8.75591 250.013 17.7949 251.538 26.6063 253.711C53.6071 260.38 75.8651 275.023 90.9787 296.054C91.39 296.626 91.7837 297.198 92.1823 297.775H91.0282Z" fill="white" fill-opacity="0.2"/>
<path fill-rule="evenodd" clip-rule="evenodd" d="M0 227.993C2.02737 228.565 4.05025 229.128 6.04612 229.681C27.3247 235.605 49.327 241.729 68.4729 253.57C86.5888 264.779 100.366 280.116 113.662 297.775H112.477C99.3728 280.437 85.7695 265.388 67.9791 254.38C48.9472 242.607 27.0086 236.502 5.79453 230.597C3.88639 230.067 1.94488 229.526 0 228.981V227.993Z" fill="white" fill-opacity="0.2"/>
<path fill-rule="evenodd" clip-rule="evenodd" d="M221.974 275.045C220.12 282.831 217.181 290.502 213.392 297.775H212.335C216.193 290.443 219.182 282.693 221.058 274.821C226.666 251.309 223.864 226.231 211.978 193.51C201.437 164.5 189.436 138.726 176.304 116.903C165.516 98.9746 152.188 84.4609 138.077 69.0953C134.428 65.1181 130.653 61.0075 126.958 56.8654C123.123 52.5722 119.305 48.1372 115.612 43.8478C110.444 37.8433 105.098 31.6415 99.6428 25.7225C98.5854 24.5838 97.5093 23.3839 96.4069 22.1578C89.4358 14.4132 81.5355 5.63928 72.1707 2.31644C69.6082 1.40979 66.9899 0.942963 64.3814 0.942963H64.3765C45.7563 0.952332 30.5238 24.2857 24.8395 34.3183C14.5913 52.4072 7.03038 72.0799 0 91.4635V88.7039C6.79678 70.075 14.1657 51.2449 24.0203 33.847C31.1838 21.2055 45.9532 -3.05176e-05 64.3765 -3.05176e-05H64.3814C67.0949 -3.05176e-05 69.8227 0.476166 72.4823 1.41916C82.0762 4.82376 90.0582 13.694 97.1025 21.5212C98.2059 22.7439 99.2809 23.9381 100.334 25.0776C105.803 31.0049 111.149 37.216 116.326 43.2209C120.015 47.5103 123.832 51.9404 127.659 56.2336C131.348 60.3667 135.124 64.477 138.772 68.4496C152.915 83.8516 166.276 98.3983 177.109 116.409C190.273 138.287 202.301 164.115 212.866 193.185C224.816 226.088 227.627 251.336 221.974 275.045Z" fill="white" fill-opacity="0.2"/>
<path fill-rule="evenodd" clip-rule="evenodd" d="M0 197.075C0.640796 197.862 1.32696 198.635 2.07799 199.386C11.0214 208.312 22.6884 213.717 33.9708 218.944C35.5313 219.672 37.0968 220.395 38.6483 221.127C58.1703 230.328 83.4722 243.486 106.051 263.717C109.936 267.2 113.75 271.091 117.781 275.21C125.97 283.563 134.337 292.099 143.857 297.775H142.04C132.977 292.062 124.963 283.889 117.114 275.874C113.09 271.768 109.287 267.891 105.424 264.427C82.9322 244.274 57.708 231.161 38.246 221.987C36.6986 221.255 35.1376 220.533 33.5722 219.809C22.2167 214.545 10.477 209.103 1.41432 200.059C0.915636 199.564 0.448819 199.056 0 198.54V197.075Z" fill="white" fill-opacity="0.2"/>
<path fill-rule="evenodd" clip-rule="evenodd" d="M203.859 270.895C200.446 281.09 193.839 291.334 184.835 298H183.225C192.611 291.497 199.488 281.022 202.982 270.598C209.229 251.963 208.325 230.278 200.225 204.301C192.683 180.13 180.832 154.487 165.946 130.149C152.836 108.711 136.223 92.0406 115.314 73.6049C114.383 72.7834 113.421 71.9257 112.422 71.041C99.0872 59.1809 80.823 42.9346 63.0272 42.9346H63.0224C60.2068 42.9346 57.4639 43.3587 54.8727 44.1898C37.1531 49.8847 26.944 67.8416 18.5475 86.4033C10.5555 104.073 4.92958 122.769 0 141.391V137.798C4.72658 120.252 10.1639 102.687 17.7067 86.0115C26.1887 67.26 36.5275 49.1039 54.5938 43.2958C57.2749 42.4381 60.1081 42 63.0224 42C63.0272 42 63.0272 42 63.0272 42C81.1741 42 99.5908 58.3779 113.034 70.3378C114.032 71.2225 114.995 72.0791 115.921 72.8962C136.897 91.3907 153.565 108.121 166.733 129.656C181.66 154.059 193.547 179.773 201.107 204.021C209.274 230.193 210.174 252.072 203.859 270.895Z" fill="white" fill-opacity="0.2"/>
<path fill-rule="evenodd" clip-rule="evenodd" d="M159.201 266.115C149.105 266.115 137.101 260.699 123.522 250.019C103.292 234.107 81.7537 220.318 61.4935 207.787C60.2755 207.033 59.0406 206.279 57.8023 205.526C49.8135 200.667 41.5575 195.638 35.3659 188.625C26.6794 178.78 24.5122 166.014 24.2268 157.038C24.1504 154.557 24.1714 151.843 24.2994 148.744C27.9359 125.661 33.6036 102.113 50.2652 86.6054C56.2563 81.0354 63.2869 78.2082 71.1598 78.2082H71.164C85.6717 78.2082 100.575 87.61 110.526 94.6832C143.88 118.383 169.391 156.655 182.357 202.439C186.904 218.5 191.528 241.554 179.231 256.274C173.772 262.802 167.035 266.115 159.201 266.115ZM71.1642 77.3263H71.16C63.0565 77.3263 55.8264 80.2299 49.6731 85.958C32.8109 101.649 27.093 125.366 23.4268 148.658C23.2943 151.831 23.2733 154.565 23.3501 157.068C23.6438 166.19 25.8494 179.172 34.7103 189.213C40.9867 196.323 49.3068 201.387 57.3508 206.284C58.5856 207.037 59.8163 207.787 61.0344 208.54C81.2732 221.059 102.785 234.83 122.986 250.716C136.718 261.52 148.904 267 159.201 267C167.304 267 174.27 263.58 179.903 256.845C192.469 241.801 187.803 218.453 183.2 202.196C170.183 156.221 144.553 117.779 111.033 93.959C100.988 86.8179 85.9185 77.3263 71.1642 77.3263Z" fill="white" fill-opacity="0.2"/>
<path fill-rule="evenodd" clip-rule="evenodd" d="M135.347 216.101C123.622 216.101 107.59 207.552 101.549 204.332C87.186 196.673 54.2376 175.199 58.5748 141.316C62.9345 124.75 74.1476 121.258 82.7859 121.258C91.0338 121.252 100.817 124.525 109.635 130.237C121.024 137.612 130.801 148.371 137.91 161.356C141.573 168.047 153.118 191.166 147.961 207.775C146.246 213.299 142.003 216.101 135.347 216.101ZM82.7857 120C73.7283 120 61.9804 123.654 57.4055 141.067C52.9468 175.828 86.4134 197.671 101.009 205.452C107.112 208.707 123.331 217.354 135.347 217.354C142.584 217.354 147.211 214.262 149.106 208.162C154.414 191.064 142.671 167.533 138.95 160.732C131.743 147.567 121.826 136.651 110.264 129.166C101.265 123.34 91.2492 120 82.7857 120Z" fill="white" fill-opacity="0.2"/>
</svg>
