<svg width="135" height="198" viewBox="0 0 135 198" fill="none" xmlns="http://www.w3.org/2000/svg">
<path fill-rule="evenodd" clip-rule="evenodd" d="M37.5761 13.1459C47.0208 17.6807 52.2892 22.8218 54.1502 29.3266C56.3735 37.0876 54.2533 45.3129 52.2044 53.2596C51.977 54.13 51.7542 54.9946 51.5378 55.8592C45.415 80.2593 46.7161 100.096 55.519 116.5C64.0239 132.353 78.6658 142.162 92.8256 151.646C107.219 161.287 122.102 171.254 130.48 187.566C132.21 190.93 133.692 194.43 135 198L135 195.931C133.851 192.964 132.579 190.052 131.129 187.226C122.666 170.743 107.701 160.728 93.2336 151.031C79.1444 141.596 64.5809 131.842 56.1608 116.152C47.4501 99.9158 46.1698 80.2535 52.2465 56.0362C52.4628 55.1774 52.6865 54.3157 52.9092 53.4453C54.8879 45.7713 57.132 37.0818 54.856 29.1264C52.3249 20.2861 43.9612 15.4002 37.8921 12.4873C26.6215 7.08504 14.7523 3.17405 2.886 -1.15498e-05L1.73097e-05 -1.18021e-05C12.7242 3.293 25.501 7.36065 37.5761 13.1459Z" fill="white" fill-opacity="0.2"/>
<path fill-rule="evenodd" clip-rule="evenodd" d="M79.1764 109.041C86.4269 124.377 100.235 134.187 113.587 143.671C120.982 148.927 128.516 154.282 135 160.615L135 159.609C128.598 153.446 121.238 148.212 114.009 143.076C100.732 133.641 87.004 123.887 79.8356 108.727C64.9954 77.3351 97.2003 48.435 118.511 29.3124L121.096 26.9798C125.917 22.6394 130.692 18.0408 135 12.9548L135 11.8087C130.572 17.1269 125.619 21.9227 120.61 26.4343L118.025 28.7583C96.5518 48.0318 64.1023 77.1524 79.1764 109.041Z" fill="white" fill-opacity="0.2"/>
<path fill-rule="evenodd" clip-rule="evenodd" d="M100.079 95.3551C100.799 108.672 109.294 118.426 116.614 125.433C122.138 130.716 128.303 135.646 135 140.166L135 139.272C128.494 134.851 122.499 130.049 117.118 124.899C109.896 117.98 101.512 108.376 100.809 95.3115C100.171 83.4567 105.713 73.4036 110.474 67.0642C117.355 57.899 126.297 50.4977 135 43.3633L135 42.4146C126.116 49.6882 116.944 57.2259 109.893 66.6261C105.057 73.0642 99.4308 83.271 100.079 95.3551Z" fill="white" fill-opacity="0.2"/>
<path fill-rule="evenodd" clip-rule="evenodd" d="M135 117.008C129.419 111.754 125.786 105.548 124.548 98.9558C122.443 87.7538 128.462 77.5121 135 70.0818L135 68.9793C128.144 76.5837 121.613 87.2896 123.829 99.0893C125.134 106.038 129.023 112.554 135 118.009L135 117.008Z" fill="white" fill-opacity="0.2"/>
</svg>
