<svg width="213" height="44" viewBox="0 0 213 44" fill="none" xmlns="http://www.w3.org/2000/svg">
<path d="M78.582 33.0352H70.2852V6.66797H78.582C83.7617 6.66797 87.7402 7.81641 90.5176 10.1133C93.2949 12.3984 94.6836 15.6328 94.6836 19.8164C94.6836 24.0117 93.2949 27.2637 90.5176 29.5723C87.7402 31.8809 83.7617 33.0352 78.582 33.0352ZM78.7051 28.2891C82.1035 28.2891 84.7051 27.5508 86.5098 26.0742C88.3262 24.5859 89.2344 22.5 89.2344 19.8164C89.2344 17.1445 88.3262 15.0762 86.5098 13.6113C84.7051 12.1465 82.1035 11.4141 78.7051 11.4141H75.6641V28.2891H78.7051Z" fill="white"/>
<path d="M97.2852 9.44531C97.2852 8.60156 97.543 7.92188 98.0586 7.40625C98.5742 6.89062 99.2539 6.63281 100.098 6.63281C100.941 6.63281 101.621 6.89062 102.137 7.40625C102.652 7.92188 102.91 8.60156 102.91 9.44531C102.91 10.2891 102.652 10.9688 102.137 11.4844C101.621 12 100.941 12.2578 100.098 12.2578C99.2539 12.2578 98.5742 12 98.0586 11.4844C97.543 10.9688 97.2852 10.2891 97.2852 9.44531ZM97.5664 33V15.4219H102.629V33H97.5664Z" fill="white"/>
<path d="M114.248 15.0703C115.396 15.0703 116.457 15.2695 117.43 15.668C118.414 16.0547 119.275 16.6055 120.014 17.3203L120.137 15.4219H124.918V30.9434C124.918 33.1934 124.49 35.1562 123.635 36.832C122.791 38.5078 121.602 39.8086 120.066 40.7344C118.543 41.6719 116.75 42.1406 114.688 42.1406C113.551 42.1406 112.344 41.9824 111.066 41.666C109.789 41.3496 108.482 40.8574 107.146 40.1895L108.676 35.9883C109.262 36.4805 110.082 36.8965 111.137 37.2363C112.191 37.5879 113.205 37.7637 114.178 37.7637C115.924 37.7637 117.307 37.1777 118.326 36.0059C119.346 34.8457 119.855 33.2754 119.855 31.2949V31.2598C119.117 31.916 118.273 32.4316 117.324 32.8066C116.375 33.1699 115.35 33.3516 114.248 33.3516C112.607 33.3516 111.137 32.959 109.836 32.1738C108.547 31.377 107.533 30.293 106.795 28.9219C106.057 27.5391 105.688 25.9688 105.688 24.2109C105.688 22.4531 106.057 20.8887 106.795 19.5176C107.533 18.1348 108.547 17.0508 109.836 16.2656C111.137 15.4688 112.607 15.0703 114.248 15.0703ZM115.391 28.957C116.68 28.957 117.746 28.5059 118.59 27.6035C119.434 26.7012 119.855 25.5703 119.855 24.2109C119.855 22.8516 119.434 21.7207 118.59 20.8184C117.746 19.916 116.68 19.4648 115.391 19.4648C114.102 19.4648 113.035 19.916 112.191 20.8184C111.348 21.7207 110.926 22.8516 110.926 24.2109C110.926 25.5703 111.348 26.7012 112.191 27.6035C113.035 28.5059 114.102 28.957 115.391 28.957Z" fill="white"/>
<path d="M128.926 9.44531C128.926 8.60156 129.184 7.92188 129.699 7.40625C130.215 6.89062 130.895 6.63281 131.738 6.63281C132.582 6.63281 133.262 6.89062 133.777 7.40625C134.293 7.92188 134.551 8.60156 134.551 9.44531C134.551 10.2891 134.293 10.9688 133.777 11.4844C133.262 12 132.582 12.2578 131.738 12.2578C130.895 12.2578 130.215 12 129.699 11.4844C129.184 10.9688 128.926 10.2891 128.926 9.44531ZM129.207 33V15.4219H134.27V33H129.207Z" fill="white"/>
<path d="M140.404 15.4219V13.0488C140.404 11.6191 140.715 10.4004 141.336 9.39258C141.957 8.38477 142.777 7.61719 143.797 7.08984C144.816 6.55078 145.918 6.28125 147.102 6.28125C147.875 6.28125 148.654 6.39844 149.439 6.63281C150.236 6.86719 151.01 7.23047 151.76 7.72266L149.809 11.291C149.516 11.0449 149.205 10.8809 148.877 10.7988C148.549 10.7168 148.25 10.6758 147.98 10.6758C147.23 10.6758 146.621 10.9277 146.152 11.4316C145.695 11.9238 145.467 12.6914 145.467 13.7344V15.4219H149.738V19.8164H145.467V33H140.404V19.8164H137.504V15.4219H140.404Z" fill="white"/>
<path d="M159.652 5.92969V33H154.59V5.92969H159.652Z" fill="white"/>
<path d="M162.992 24.2109C162.992 22.4531 163.396 20.8887 164.205 19.5176C165.025 18.1348 166.139 17.0508 167.545 16.2656C168.963 15.4688 170.574 15.0703 172.379 15.0703C174.184 15.0703 175.789 15.4688 177.195 16.2656C178.602 17.0508 179.709 18.1348 180.518 19.5176C181.338 20.8887 181.748 22.4531 181.748 24.2109C181.748 25.9688 181.338 27.5391 180.518 28.9219C179.709 30.293 178.602 31.377 177.195 32.1738C175.789 32.959 174.184 33.3516 172.379 33.3516C170.574 33.3516 168.963 32.959 167.545 32.1738C166.139 31.377 165.025 30.293 164.205 28.9219C163.396 27.5391 162.992 25.9688 162.992 24.2109ZM167.914 24.2109C167.914 25.5703 168.336 26.7012 169.18 27.6035C170.023 28.5059 171.09 28.957 172.379 28.957C173.668 28.957 174.734 28.5059 175.578 27.6035C176.422 26.7012 176.844 25.5703 176.844 24.2109C176.844 22.8516 176.422 21.7207 175.578 20.8184C174.734 19.916 173.668 19.4648 172.379 19.4648C171.09 19.4648 170.023 19.916 169.18 20.8184C168.336 21.7207 167.914 22.8516 167.914 24.2109Z" fill="white"/>
<path d="M183.348 15.4219H188.674L191.539 24.5449C191.68 25.002 191.809 25.4355 191.926 25.8457C192.055 26.2559 192.172 26.6484 192.277 27.0234C192.371 26.6484 192.471 26.2559 192.576 25.8457C192.693 25.4355 192.816 25.002 192.945 24.5449L195.811 15.4219H200.855L203.721 24.5449C203.861 25.002 203.99 25.4355 204.107 25.8457C204.236 26.2559 204.354 26.6543 204.459 27.041C204.553 26.6543 204.652 26.2559 204.758 25.8457C204.875 25.4355 204.998 25.002 205.127 24.5449L207.992 15.4219H213.002L207.113 33H202.104C201.424 30.9375 200.773 28.9102 200.152 26.918C199.543 24.9258 198.969 22.916 198.43 20.8887C197.926 22.9395 197.346 24.9727 196.689 26.9883C196.033 29.0039 195.324 31.0078 194.562 33H189.236L183.348 15.4219Z" fill="white"/>
<path d="M0 0H23.3719C34.4176 0 43.3719 8.95431 43.3719 20V24C43.3719 35.0457 34.4176 44 23.3719 44H0V0Z" fill="white"/>
<mask id="mask0_189_50" style="mask-type:alpha" maskUnits="userSpaceOnUse" x="0" y="0" width="44" height="44">
<path d="M0 0L23.3719 0C34.4176 0 43.3719 8.95431 43.3719 20L43.3719 24C43.3719 35.0457 34.4176 44 23.3719 44L0 44L0 0Z" fill="#2148D1"/>
</mask>
<g mask="url(#mask0_189_50)">
<path fill-rule="evenodd" clip-rule="evenodd" d="M62.9456 8.82365C63.3882 9.15398 63.4792 9.78057 63.1489 10.2232L52.789 24.1042C50.3895 27.3193 45.5716 27.3193 43.1721 24.1042L36.8192 15.5921C35.2195 13.4488 32.0076 13.4488 30.408 15.5921L24.0551 24.1042C21.6556 27.3193 16.8377 27.3193 14.4382 24.1042L8.08533 15.5921C6.48566 13.4488 3.27374 13.4488 1.67407 15.5921L-8.68583 29.4732C-9.01617 29.9158 -9.64275 30.0068 -10.0854 29.6765C-10.528 29.3461 -10.619 28.7196 -10.2887 28.2769L0.0712562 14.3959C2.47076 11.1808 7.28864 11.1808 9.68815 14.3959L16.041 22.908C17.6407 25.0514 20.8526 25.0514 22.4523 22.908L28.8051 14.3959C31.2046 11.1808 36.0225 11.1808 38.422 14.3959L44.7749 22.908C46.3746 25.0514 49.5865 25.0514 51.1862 22.908L61.5461 9.02694C61.8764 8.58433 62.503 8.49332 62.9456 8.82365Z" fill="#1E2A54"/>
<path fill-rule="evenodd" clip-rule="evenodd" d="M62.9456 -6.30135C63.3882 -5.97102 63.4792 -5.34443 63.1489 -4.90183L52.789 8.97922C50.3895 12.1943 45.5716 12.1943 43.1721 8.97923L36.8192 0.467134C35.2195 -1.67624 32.0076 -1.67624 30.408 0.467129L24.0551 8.97922C21.6556 12.1943 16.8377 12.1943 14.4382 8.97923L8.08533 0.467137C6.48566 -1.67623 3.27374 -1.67624 1.67407 0.467131L-8.68583 14.3482C-9.01617 14.7908 -9.64276 14.8818 -10.0854 14.5515C-10.528 14.2211 -10.619 13.5946 -10.2887 13.1519L0.0712562 -0.729105C2.47076 -3.94416 7.28864 -3.94415 9.68815 -0.7291L16.041 7.78299C17.6407 9.92636 20.8526 9.92636 22.4523 7.78299L28.8051 -0.729108C31.2046 -3.94416 36.0225 -3.94415 38.422 -0.729103L44.7749 7.78299C46.3746 9.92636 49.5865 9.92636 51.1862 7.78298L61.5461 -6.09806C61.8764 -6.54067 62.503 -6.63169 62.9456 -6.30135Z" fill="#1E2A54"/>
<path fill-rule="evenodd" clip-rule="evenodd" d="M62.9456 23.9482C63.3882 24.2785 63.4792 24.9051 63.1489 25.3477L52.789 39.2287C50.3895 42.4438 45.5716 42.4438 43.1721 39.2287L36.8192 30.7166C35.2195 28.5733 32.0076 28.5733 30.408 30.7166L24.0551 39.2287C21.6556 42.4438 16.8377 42.4438 14.4382 39.2287L8.08533 30.7166C6.48566 28.5733 3.27374 28.5733 1.67407 30.7166L-8.68583 44.5977C-9.01617 45.0403 -9.64275 45.1313 -10.0854 44.801C-10.528 44.4707 -10.619 43.8441 -10.2886 43.4015L0.0712562 29.5204C2.47076 26.3054 7.28864 26.3054 9.68815 29.5204L16.041 38.0325C17.6407 40.1759 20.8526 40.1759 22.4523 38.0325L28.8051 29.5204C31.2046 26.3053 36.0225 26.3054 38.422 29.5204L44.7749 38.0325C46.3746 40.1759 49.5865 40.1759 51.1862 38.0325L61.5461 24.1514C61.8764 23.7088 62.503 23.6178 62.9456 23.9482Z" fill="#1E2A54"/>
</g>
</svg>
